PathFileType	4	(X/Y/Z)	C249e_D251_DD_1_S001_6.trc
DataRate	CameraRate	NumFrames	NumMarkers	Units	OrigDataRate	OrigDataStartFrame	OrigNumFrames
50.0	50.0	4	54	mm	50.0	172	274
Frame#	Time		Q_WaistRFront		Q_WaistLFront		Q_WaistL		Q_WaistR		Q_WaistBack		Q_LThighFrontLow		Q_RThighFrontLow		Q_RKneeIn		Q_RKneeOut		Q_RShinFrontHigh		Q_LKneeIn		Q_LKneeOut		Q_LShinFrontHigh		Q_RForefoot5		Q_RForefoot2		Q_RHeelBack		Q_RAnkleOut		Q_LForefoot5		Q_LForefoot2		Q_LHeelBack		Q_LAnkleOut		Q_SpineThoracic2		Q_Chest		Q_SpineThoracic12		Q_HeadL		Q_HeadR		Q_HeadFront		Q_LShoulderTop		Q_LArm		Q_LElbowOut		Q_LElbowIn		Q_LWristOut		Q_LWristIn		Q_LHand2		Q_RShoulderTop		Q_RArm		Q_RElbowOut		Q_RElbowIn		Q_RWristOut		Q_RWristIn		Q_RHand2		RHipAngles		LHipAngles		RKneeAngles		LKneeAngles		RAnkleAngles		LAnkleAngles		RShoulderAngles		LShoulderAngles		RElbowAngles		LElbowAngles		RWristAngles		LWristAngles		Neck
			X1	Y1	Z1	X2	Y2	Z2	X3	Y3	Z3	X4	Y4	Z4	X5	Y5	Z5	X6	Y6	Z6	X7	Y7	Z7	X8	Y8	Z8	X9	Y9	Z9	X10	Y10	Z10	X11	Y11	Z11	X12	Y12	Z12	X13	Y13	Z13	X14	Y14	Z14	X15	Y15	Z15	X16	Y16	Z16	X17	Y17	Z17	X18	Y18	Z18	X19	Y19	Z19	X20	Y20	Z20	X21	Y21	Z21	X22	Y22	Z22	X23	Y23	Z23	X24	Y24	Z24	X25	Y25	Z25	X26	Y26	Z26	X27	Y27	Z27	X28	Y28	Z28	X29	Y29	Z29	X30	Y30	Z30	X31	Y31	Z31	X32	Y32	Z32	X33	Y33	Z33	X34	Y34	Z34	X35	Y35	Z35	X36	Y36	Z36	X37	Y37	Z37	X38	Y38	Z38	X39	Y39	Z39	X40	Y40	Z40	X41	Y41	Z41	X42	Y42	Z42	X43	Y43	Z43	X44	Y44	Z44	X45	Y45	Z45	X46	Y46	Z46	X47	Y47	Z47	X48	Y48	Z48	X49	Y49	Z49	X50	Y50	Z50	X51	Y51	Z51	X52	Y52	Z52	X53	Y53	Z53	X54	Y54	Z54

172	3.42000	137.74251	620.26917	291.16507	-118.74151	621.23767	292.65027	-118.29202	668.69055	339.32669	138.19199	667.72205	337.84149	9.94998	668.20630	338.58411	-175.52948	446.32877	141.62256	195.69173	442.25336	142.88625	162.29198	394.86295	100.19619	296.62335	414.86447	134.18176	247.94138	209.19540	159.28699	-141.43752	399.38177	97.88038	-275.64261	417.58685	133.34268	-224.51744	212.21593	155.90326	323.83466	34.39154	141.92032	275.40750	44.44860	134.59457	252.81488	38.67535	276.01855	311.79800	65.00432	266.24594	-296.58124	37.19352	136.26440	-248.18228	47.77196	129.50865	-226.82071	40.43138	271.05121	-285.94775	66.35462	261.06601	6.16701	1107.45410	198.24884	11.01345	473.41605	223.52623	6.16701	1107.45410	198.24884	-67.36885	1233.63416	68.80743	72.58559	1234.84082	72.16854	4.34989	1225.72021	1.02994	-120.69020	1106.31555	109.76874	-258.16769	1118.91394	54.43946	-307.88055	1207.36694	23.59039	-282.65625	1150.42896	-54.65153	-276.75900	1356.40820	-158.56676	-229.84315	1353.72339	-141.48775	-182.62296	1425.13599	-161.36603	125.25164	1108.71387	100.92602	254.55792	1125.09229	32.27060	298.24719	1214.85547	-3.51759	266.34985	1157.20190	-78.74137	247.26500	1362.59851	-182.22377	202.28722	1359.31128	-160.63229	164.18141	1443.64880	-172.83096	-96.96023	18.69830	-1.85528	-98.57681	17.67410	0.20522	-69.60764	-4.73188	-0.43697	-70.12099	-2.95661	-0.79624	-19.13503	-4.90445	-20.05546	-19.43901	-5.98296	-20.05036	-24.04488	91.87087	-53.02414	23.02853	-90.14906	-50.79223	-49.55369	-90.14906	33.27467	-50.44371	-0.00000	33.27467	25.53363	7.60445	33.27467	24.07739	16.88534	-0.00000	-0.00000	-0.59412	2.91568
173	3.44000	138.01730	626.33649	288.66745	-118.45844	628.54846	290.24246	-117.76315	675.75574	337.16425	138.71259	673.54376	335.58923	10.47472	674.64978	336.37674	-175.59459	448.84497	141.95927	196.07269	444.27365	142.92628	162.62874	396.52435	100.57167	296.84299	416.15533	135.22925	247.68524	210.47926	159.33058	-141.55385	401.59384	98.74918	-275.70749	419.50223	134.55560	-224.30602	214.09900	156.17532	323.43903	34.39637	142.10728	275.09900	44.61150	134.43314	251.62457	39.68697	275.74554	310.77365	65.72256	266.19250	-296.29214	37.29505	136.61819	-247.97238	48.04461	129.57190	-226.01440	42.10635	271.08899	-285.30597	67.65114	261.10394	7.53030	1116.64294	200.49486	11.36985	482.32672	217.66811	7.53030	1116.64294	200.49486	-67.20222	1244.48120	72.14161	72.74369	1246.57544	75.42153	4.51716	1237.74207	4.23790	-119.13258	1118.12842	112.92825	-257.53586	1130.73157	58.50536	-307.67258	1219.21655	28.44384	-282.95889	1162.67456	-50.24689	-277.48306	1369.19983	-153.09599	-230.47044	1366.38257	-136.30693	-183.58159	1438.53857	-155.06717	126.26849	1119.57373	102.52799	256.13132	1137.04077	34.60606	299.41531	1227.38391	-0.20187	268.85172	1169.87854	-76.08993	247.39677	1375.80359	-178.04657	202.33588	1371.68054	-156.77417	162.95140	1454.73755	-173.53375	-95.88208	18.88827	-1.64118	-97.28275	17.54068	0.43405	-68.60462	-4.78760	-0.23619	-68.96917	-3.37418	-0.64698	-18.58558	-4.88743	-20.05297	-18.64399	-5.97159	-20.06089	-23.93833	90.73902	-52.82661	23.26098	-89.52020	-50.28792	-49.98557	-89.52020	34.37662	-50.66399	-0.00000	34.37662	23.08112	7.47781	34.37662	24.39712	16.67439	-0.00000	-0.00000	-0.16233	2.91548
174	3.46000	137.29060	632.13989	286.45590	-119.17834	635.35883	287.15887	-118.45847	682.43872	334.20813	138.01047	679.21979	333.50516	9.77601	680.82922	333.85663	-175.47861	450.01721	142.09271	196.05981	445.89606	143.86864	162.75952	397.56375	101.90225	296.71167	417.26474	137.52083	247.61372	211.48505	160.84698	-141.17625	402.21521	99.88204	-275.49921	420.00720	135.10689	-224.25255	214.50171	156.11356	323.76990	34.56918	144.16309	275.50290	44.77817	136.03458	250.84958	40.59307	277.16995	310.09512	66.53872	267.97675	-296.26990	37.12958	135.73795	-247.93520	47.92237	128.86226	-226.49802	42.12748	270.46512	-285.77795	67.60325	260.23758	8.07995	1125.32312	202.22366	10.88454	490.83630	211.46754	8.07995	1125.32312	202.22366	-66.05052	1255.71997	75.00276	73.92270	1256.68726	77.56390	5.25995	1248.94214	6.67358	-118.51443	1128.99939	114.69720	-257.02271	1142.04395	59.97816	-307.54028	1230.74512	31.21933	-281.97699	1175.80762	-48.33177	-277.10663	1384.21643	-147.34000	-230.18623	1381.37366	-130.29918	-185.93739	1456.77380	-147.98691	126.68120	1130.00391	104.32442	255.92728	1147.57886	35.31767	299.37784	1238.08301	1.14134	267.66977	1181.68042	-75.10395	247.74806	1388.84485	-174.83690	202.79280	1384.99292	-153.29193	165.18507	1469.51111	-169.76265	-94.83850	19.06683	-1.43675	-95.89695	17.30341	0.66163	-67.54992	-4.73632	-0.05551	-67.51930	-3.64997	-0.51039	-18.14980	-4.86356	-20.04592	-18.33837	-5.94243	-20.05514	-24.35903	91.23285	-52.94910	23.39174	-90.08129	-50.19258	-49.61856	-90.08129	34.62092	-50.68245	-0.00000	34.62092	22.41483	6.86356	34.62092	24.30863	14.46088	-0.00000	-0.00000	-0.52689	2.76852
175	3.48000	137.15355	639.72955	284.09607	-119.30126	643.95703	284.58917	-118.43593	690.95294	331.71985	138.01888	686.72546	331.22672	9.79148	688.83917	331.47330	-175.28609	451.92249	143.97758	195.74319	449.26532	144.52400	162.28795	400.35956	103.41395	296.29349	420.05682	138.83322	247.63933	214.02290	160.80540	-140.81303	403.40631	103.03932	-275.26050	421.16925	137.80090	-224.45886	215.42395	157.50041	324.12448	34.98909	143.55780	275.88388	45.24997	135.33844	251.28072	42.67317	276.52109	310.59763	68.34405	267.02179	-296.72910	36.76982	136.05020	-248.38715	47.59372	129.27512	-227.37526	42.43967	270.96643	-286.65546	67.79602	260.44785	9.01857	1135.86414	204.44986	10.90182	501.30692	205.09039	9.01857	1135.86414	204.44986	-65.31873	1268.31494	78.11812	74.64811	1269.45569	80.94329	6.12618	1262.06201	9.87939	-117.63301	1141.62317	117.49587	-256.43628	1154.92029	62.99097	-307.07639	1243.83521	35.12207	-281.76743	1189.55103	-44.95707	-276.29565	1398.84875	-142.04021	-229.36949	1395.69336	-125.07028	-187.13629	1473.23901	-143.60504	127.53949	1142.50720	106.92146	256.84201	1160.66138	37.96453	300.13226	1251.52844	4.55627	268.82544	1195.56824	-72.17921	247.44884	1403.44556	-170.11127	202.52095	1399.09009	-148.60516	164.34016	1483.64709	-162.59863	-93.83140	19.14965	-1.23928	-94.27280	17.07764	0.93327	-66.11063	-4.60026	-0.09388	-65.55354	-3.90157	-0.44547	-17.07271	-4.89515	-20.04734	-17.63657	-5.95296	-20.05066	-24.61124	90.70865	-52.85785	23.57747	-89.59982	-49.88491	-49.91885	-89.59982	34.73282	-50.94216	-0.00000	34.73282	23.83526	6.46757	34.73282	23.42652	12.71959	-0.00000	-0.00000	-0.40873	2.80365
